<svg viewBox="0 0 1280 720" xmlns="http://www.w3.org/2000/svg">
  <rect x="0" y="0" width="1280" height="720" fill="#F4F6F5"/>
  <text x="1173" y="76" font-family="Arial" font-size="15" letter-spacing="2" text-anchor="end" fill="#78827D">06 / 08</text>
  <text x="107" y="112" font-family="微软雅黑" font-size="37" font-weight="bold" fill="#2E3238">亮点三 · 跨页书架与移动端</text>
  <rect x="107" y="138" width="107" height="4" fill="#4C7A5A"/>

  <text x="107" y="196" font-family="微软雅黑" font-size="15" font-weight="bold" fill="#4C7A5A">跨页书架</text>

  <text x="107" y="248" font-family="微软雅黑" font-size="19" fill="#2E3238">工作台做的书，睡前故事页<tspan font-weight="bold" fill="#4C7A5A">立刻能听</tspan></text>
  <line x1="107" y1="280" x2="600" y2="280" stroke="#D2DAD5" stroke-width="1"/>
  <text x="107" y="330" font-family="微软雅黑" font-size="19" fill="#2E3238">收听进度<tspan font-weight="bold" fill="#4C7A5A">跨设备同步</tspan></text>
  <line x1="107" y1="362" x2="600" y2="362" stroke="#D2DAD5" stroke-width="1"/>
  <text x="107" y="412" font-family="微软雅黑" font-size="19" fill="#2E3238">音频一键下载，按钮走状态机：</text>
  <text x="107" y="452" font-family="微软雅黑" font-size="19" font-weight="bold" fill="#4C7A5A">下载 → 百分比 → 完成</text>

  <text x="693" y="196" font-family="微软雅黑" font-size="15" font-weight="bold" fill="#4C7A5A">移动端踩的坑</text>

  <rect x="693" y="228" width="480" height="150" fill="#EBE4E1"/>
  <text x="741" y="268" font-family="微软雅黑" font-size="17" font-weight="bold" fill="#8C5A46">问题</text>
  <text x="741" y="306" font-family="微软雅黑" font-size="19" fill="#503C32">底部播放栏被全面屏手势条</text>
  <text x="741" y="344" font-family="微软雅黑" font-size="19" font-weight="bold" fill="#8C5A46">切掉一半</text>

  <line x1="933" y1="396" x2="933" y2="436" stroke="#4C7A5A" stroke-width="2"/>
  <line x1="927" y1="429" x2="933" y2="436" stroke="#4C7A5A" stroke-width="2"/>
  <line x1="939" y1="429" x2="933" y2="436" stroke="#4C7A5A" stroke-width="2"/>

  <rect x="693" y="452" width="480" height="150" fill="#E0EBE4"/>
  <text x="741" y="492" font-family="微软雅黑" font-size="17" font-weight="bold" fill="#4C7A5A">解法</text>
  <text x="741" y="530" font-family="微软雅黑" font-size="19" fill="#2E3238">靠 <tspan font-weight="bold" fill="#4C7A5A">safe-area 适配</tspan> 解决</text>
  <text x="741" y="568" font-family="微软雅黑" font-size="19" fill="#4C7A5A">真机截图才发现的</text>
</svg>
